# xmcd CD database file
#
# Track frame offsets:
#	150
#	18140
#	34985
#	49365
#	68508
#	91485
#	100090
#	126506
#	143066
#	161733
#	178436
#	191213
#	210351
#
# Disc length: 2995 seconds
#
# Revision: 1
# Processed by: cddbd v1.5.1PL2 Copyright (c) Steve Scherf et al.
# Submitted via: CDex 1.51
#
DISCID=bc0bb10d
DTITLE=Varios Artistas - A Musica de Cazuza
DYEAR=2004
DGENRE=MPB
TTITLE0=Malandragem (Ao Vivo) - Cássia Eller
TTITLE1=Codinome Beija-Flor - Luiz Melodia
TTITLE2=Preciso Dizer Que Te Amo - Marina Lima
TTITLE3=Pro Dia Nascer Feliz - Ney Matogrosso
TTITLE4=O Tempo Não Pára (Ao Vivo) - Zélia Duncan
TTITLE5=Todo Amor Que Houver Nessa Vida (Ao Vivo) - Caetano Veloso
TTITLE6=Perto do Fogo (Ao Vivo) - Rita Lee
TTITLE7=Amor.Amor Mais Feliz (Ao Vivo) - Leila Pinheiro
TTITLE8=Bete Balanço - Cassia Eller
TTITLE9=Um Trem Para as Estrelas - Gilberto Gil e Cazuza
TTITLE10=Brasil - Gal Costa
TTITLE11=Ideologia (Ao Vivo) - Paulo Ricardo
TTITLE12=Exagerado (Ao Vivo) - Ney Matogrosso
EXTD=YEAR: 2004
EXTT0=
EXTT1=
EXTT2=
EXTT3=
EXTT4=
EXTT5=
EXTT6=
EXTT7=
EXTT8=
EXTT9=
EXTT10=
EXTT11=
EXTT12=
PLAYORDER=
